<svg width="96" height="96" viewBox="0 0 96 96" fill="none" xmlns="http://www.w3.org/2000/svg">
<path d="M47.9995 0C21.5323 0 0 21.5319 0 47.9995C0 74.467 21.5323 95.9993 47.9995 95.9993C74.4667 95.9993 96 74.4663 96 47.9995C96 21.5326 74.4663 0 47.9995 0ZM47.9995 88.3822C25.7326 88.3822 7.61715 70.2661 7.61715 47.9995C7.61715 25.7329 25.7329 7.61576 47.9995 7.61576C70.2661 7.61576 88.3822 25.7329 88.3822 47.9995C88.3822 70.2661 70.2667 88.3822 47.9995 88.3822Z" fill="white"/>
<path d="M67.4368 43.1213L42.4078 26.8166C41.5756 26.252 40.6053 25.9248 39.6011 25.8702C38.5969 25.8156 37.5968 26.0357 36.7084 26.5069C35.8199 26.978 35.0766 27.6823 34.5583 28.5441C34.04 29.4059 33.7664 30.3927 33.7668 31.3983V64.6021C33.7671 65.5624 34.0172 66.5061 34.4925 67.3404C34.9679 68.1748 35.6522 68.871 36.4782 69.3608C37.3042 69.8506 38.2434 70.117 39.2035 70.1339C40.1637 70.1508 41.1117 69.9175 41.9543 69.4571C42.1957 69.3246 42.427 69.1743 42.6461 69.0075L67.691 52.7324C67.7792 52.6771 67.864 52.6218 67.9505 52.563C68.734 52.0258 69.3661 51.296 69.7859 50.4437C70.2057 49.5915 70.399 48.6455 70.3472 47.6969C70.2954 46.7483 70.0003 45.829 69.4903 45.0275C68.9803 44.226 68.2725 43.5693 67.4351 43.1206L67.4368 43.1213Z" fill="white"/>
</svg>
